<?xml version="1.0" standalone="no"?>
<!DOCTYPE svg PUBLIC "-//W3C//DTD SVG 20010904//EN"
 "http://www.w3.org/TR/2001/REC-SVG-20010904/DTD/svg10.dtd">
<svg version="1.0" xmlns="http://www.w3.org/2000/svg"
 width="312.000000pt" height="312.000000pt" viewBox="0 0 312.000000 312.000000"
 preserveAspectRatio="xMidYMid meet">
<metadata>
Created by potrace 1.14, written by Peter Selinger 2001-2017
</metadata>
<g transform="translate(0.000000,312.000000) scale(0.100000,-0.100000)"
fill="#000000" stroke="none">
<path d="M1355 2905 c-119 -22 -126 -24 -214 -52 -113 -36 -287 -124 -386
-197 -164 -120 -325 -312 -414 -494 -43 -89 -94 -232 -107 -297 -4 -22 -9 -47
-11 -55 -13 -57 -18 -135 -17 -270 0 -123 5 -177 23 -260 104 -480 454 -866
916 -1014 155 -49 237 -61 420 -61 180 1 254 12 410 61 351 111 646 368 810
705 36 74 84 204 91 249 3 14 7 33 10 42 27 90 39 358 21 488 -57 425 -343
826 -726 1020 -126 63 -228 97 -406 136 -59 12 -349 12 -420 -1z m395 -99 c14
-3 50 -11 80 -17 281 -57 570 -244 747 -484 102 -137 195 -348 222 -502 20
-114 21 -129 21 -247 1 -290 -99 -570 -282 -793 -181 -219 -484 -399 -743
-439 -22 -3 -60 -9 -84 -14 -46 -8 -299 -6 -341 4 -14 3 -50 11 -80 17 -357
73 -693 334 -859 667 -90 179 -132 361 -132 562 0 337 128 647 367 886 192
191 434 314 703 358 74 12 331 13 381 2z"/>
<path d="M780 2492 c-54 -6 -68 -13 -79 -40 -15 -36 0 -79 31 -91 13 -5 346
-8 741 -7 396 1 720 -1 722 -4 2 -3 -20 -30 -49 -60 -28 -30 -101 -109 -161
-175 -60 -66 -112 -122 -115 -125 -3 -3 -25 -28 -50 -55 -25 -28 -88 -98 -141
-155 -209 -228 -204 -203 -66 -350 52 -55 154 -166 259 -281 144 -158 222
-244 271 -295 31 -33 57 -63 57 -66 0 -3 -329 -5 -732 -5 l-732 0 -24 -28
c-17 -21 -22 -35 -17 -54 15 -59 -39 -56 862 -57 l827 -1 23 23 c41 41 27 81
-57 164 -14 14 -68 72 -120 130 -52 57 -104 114 -115 126 -11 11 -42 45 -70
75 -105 115 -231 253 -258 283 -16 17 -48 52 -73 77 l-44 46 28 30 c15 17 68
75 117 128 50 54 98 107 108 119 10 12 37 41 60 66 23 25 87 95 142 155 55 61
122 134 150 164 27 29 55 59 60 65 6 6 29 33 53 58 49 55 54 89 18 121 l-25
22 -788 0 c-433 0 -799 -1 -813 -3z"/>
<path d="M932 2175 c-21 -27 -22 -31 -22 -629 l0 -602 23 -22 c24 -22 24 -22
465 -22 401 1 443 2 462 18 29 24 30 80 2 103 -20 16 -55 17 -419 16 l-398 -1
-2 534 c0 294 -2 547 -2 561 -1 35 -21 58 -57 65 -26 5 -35 1 -52 -21z"/>
<path d="M1332 2019 c-12 -5 -26 -18 -30 -30 -5 -11 -8 -204 -7 -429 0 -385 2
-410 19 -429 25 -28 70 -27 96 1 20 22 21 30 18 440 -3 362 -5 419 -19 433
-19 20 -48 25 -77 14z"/>
</g>
</svg>
